<svg width="24" height="24" viewBox="0 0 24 24" fill="none" xmlns="http://www.w3.org/2000/svg">
<path d="M7.59 5.66109C6.81 4.88109 6.81 3.61109 7.59 2.83109C8.37 2.05109 9.64 2.05109 10.42 2.83109C11.2 3.61109 11.2 4.88109 10.42 5.66109C9.63 6.45109 8.37 6.45109 7.59 5.66109ZM6 16.2511V7.25109H4V16.2511C4 19.0111 6.24 21.2511 9 21.2511H15V19.2511H9C7.34 19.2511 6 17.9111 6 16.2511ZM20 20.3211L14.93 15.2511H11.5V11.5711C12.9 12.7211 15.1 13.7311 17 13.7311V11.5711C15.34 11.5911 13.39 10.7011 12.33 9.53109L10.93 7.98109C10.74 7.77109 10.5 7.60109 10.24 7.48109C9.95 7.34109 9.62 7.25109 9.28 7.25109H9.25C8.01 7.25109 7 8.26109 7 9.50109V15.2511C7 16.9111 8.34 18.2511 10 18.2511H15.07L18.57 21.7511L20 20.3211Z" fill="black"/>
</svg>
