<svg width="50" height="20" viewBox="0 0 50 20" fill="none" xmlns="http://www.w3.org/2000/svg">
<path opacity="0.25" d="M38.3551 6.47567C36.9297 2.69227 33.2774 0 28.9951 0C28.3642 0 27.7465 0.0589244 27.1481 0.170679C31.788 1.03729 35.3001 4.75567 35.3001 9.64646C35.3001 13.1281 32.4778 16.304 28.9951 16.304C28.352 16.304 27.7323 16.2075 27.1481 16.0287C24.5676 15.2393 22.6901 12.8386 22.6901 9.99899C22.6901 7.15941 24.5666 4.75872 27.1481 3.96932C26.5639 3.79051 25.9432 3.694 25.3011 3.694C21.8194 3.694 18.9961 6.86986 18.9961 10.3515C18.9961 15.2433 22.5083 18.9607 27.1481 19.8273C27.7465 19.9391 28.3642 19.998 28.9951 19.998C33.2774 19.998 36.9297 17.3057 38.3551 13.5223V6.47567Z" fill="black"/>
<path d="M27.1463 0.170682C26.5479 0.0589275 25.9302 0 25.2993 0C20.502 0 16.493 3.37905 15.5238 7.88581C15.4913 8.0382 15.3552 8.14691 15.1987 8.14691H10.3323C10.1484 8.14691 9.99904 8.29626 9.99904 8.48014V11.5046C9.99904 11.6885 10.1484 11.8379 10.3323 11.8379H14.6074C14.7913 11.8379 14.9406 11.9872 14.9406 12.1711V13.6717C14.9406 13.8312 14.8837 13.9866 14.7791 14.1075C13.6229 15.4506 11.9111 16.302 9.99904 16.302C6.51736 16.302 3.69503 13.4796 3.69503 9.99797C3.69503 6.51631 6.51736 3.694 9.99904 3.694C10.9784 3.694 11.905 3.91751 12.7309 4.31576C12.8874 4.39094 13.0754 4.33709 13.1648 4.18775L14.7161 1.57777C14.8136 1.41319 14.7537 1.19984 14.584 1.11145C13.2105 0.401301 11.652 0 9.99904 0C4.4763 0 0 4.4773 0 9.99899C0 15.5217 4.47732 19.998 9.99904 19.998C12.9331 19.998 15.5726 18.7341 17.4013 16.7205C17.5344 16.5742 17.763 16.5742 17.8971 16.7205C19.7258 18.7341 22.3652 19.998 25.2993 19.998C25.9302 19.998 26.5479 19.9391 27.1463 19.8273C22.5065 18.9607 18.9943 15.2423 18.9943 10.3515C18.9943 6.86986 21.8166 3.694 25.2993 3.694C25.9424 3.694 26.5622 3.79051 27.1463 3.96932C29.7269 4.75872 31.6043 7.15941 31.6043 9.99899C31.6043 12.8386 29.7279 15.2393 27.1463 16.0287C27.7305 16.2075 28.3513 16.304 28.9933 16.304C32.475 16.304 35.2984 13.1281 35.2984 9.64646C35.2984 4.75567 31.7862 1.03729 27.1463 0.170682ZM48.9366 16.0205H42.3786C42.1947 16.0205 42.0453 15.8712 42.0453 15.6873V0.620748C42.0453 0.436861 41.896 0.287516 41.7121 0.287516H38.6876C38.5037 0.287516 38.3544 0.436861 38.3544 0.620748V19.046C38.3544 19.4138 38.653 19.7125 39.0208 19.7125H48.9376C49.1215 19.7125 49.2708 19.5632 49.2708 19.3793V16.3538C49.2698 16.1699 49.1204 16.0205 48.9366 16.0205Z" fill="#FF7020"/>
</svg>
