<svg width="24" height="24" viewBox="0 0 24 24" fill="none" xmlns="http://www.w3.org/2000/svg">
<path d="M5.9061 14L7.52347 8.93334H3.95305L2.97653 10.2074H2L2.64085 7.98519L2 5.79259H2.97653L3.95305 7.03704H7.52347L5.9061 2H7.18779L10.4531 7.03704H14.0235C14.2879 7.03704 14.5117 7.12593 14.6948 7.30371C14.8983 7.50124 15 7.7284 15 7.98519C15 8.24198 14.8983 8.45927 14.6948 8.63705C14.5117 8.83458 14.2879 8.93334 14.0235 8.93334H10.4531L7.18779 14H5.9061Z" fill="#333333"/>
<path d="M17.3944 10L15.9014 15.0667H19.1972L20.0986 13.7926H21L20.4085 16.0148L21 18.2074H20.0986L19.1972 16.963H15.9014L17.3944 22H16.2113L13.1972 16.963H9.90141C9.65728 16.963 9.4507 16.8741 9.28169 16.6963C9.0939 16.4988 9 16.2716 9 16.0148C9 15.758 9.0939 15.5407 9.28169 15.363C9.4507 15.1654 9.65728 15.0667 9.90141 15.0667L13.1972 15.0667L16.2113 10H17.3944Z" fill="#333333"/>
</svg>
